<svg width="16" height="16" version="1.1" viewBox="0 0 16 16" xmlns="http://www.w3.org/2000/svg"><path d="m15 6.1473c0-0.54493-0.44434-0.98364-0.99628-0.98364h-7.9702c-0.55194 0-0.99628 0.4387-0.99628 0.98364v1.9673h1.4944v-1.4755h6.974v6.8854h-6.974v-1.4755h-1.4944v1.9673c0 0.54494 0.44434 0.98364 0.99628 0.98364h7.9702c0.55194 0 0.99628-0.4387 0.99628-0.98364zm-14-4.1637c0-0.54493 0.44434-0.98363 0.99628-0.98363h7.9702c0.55194 0 0.99628 0.4387 0.99628 0.98363v1.9673h-1.4944v-1.4755h-6.974v6.8854h6.974v-1.4755h1.4944v1.9673c0 0.54493-0.44434 0.98363-0.99628 0.98363h-7.9702c-0.55194 0-0.99628-0.4387-0.99628-0.98363z"/></svg>
